<mxfile host="app.diagrams.net" agent="Mozilla/5.0 (Windows NT 10.0; Win64; x64) AppleWebKit/537.36 (KHTML, like Gecko) Chrome/130.0.0.0 Safari/537.36" version="24.8.0">
  <diagram name="Página-1" id="0yyZf2vExyStb92xReoz">
    <mxGraphModel dx="1434" dy="1915" grid="1" gridSize="10" guides="1" tooltips="1" connect="1" arrows="1" fold="1" page="1" pageScale="1" pageWidth="827" pageHeight="1169" math="0" shadow="0">
      <root>
        <mxCell id="0" />
        <mxCell id="1" parent="0" />
        <mxCell id="OzVhn0ZwfNGyfeAr3oJH-2" value="Vendedor" style="shape=umlActor;verticalLabelPosition=bottom;verticalAlign=top;html=1;outlineConnect=0;" parent="1" vertex="1">
          <mxGeometry x="90" y="-1020" width="30" height="60" as="geometry" />
        </mxCell>
        <mxCell id="OzVhn0ZwfNGyfeAr3oJH-3" value="Sistema" style="rounded=0;whiteSpace=wrap;html=1;" parent="1" vertex="1">
          <mxGeometry x="364" y="-980" width="100" height="30" as="geometry" />
        </mxCell>
        <mxCell id="OzVhn0ZwfNGyfeAr3oJH-4" value="" style="endArrow=none;dashed=1;html=1;dashPattern=1 3;strokeWidth=2;rounded=0;entryX=0.5;entryY=0.5;entryDx=0;entryDy=0;entryPerimeter=0;" parent="1" edge="1">
          <mxGeometry width="50" height="50" relative="1" as="geometry">
            <mxPoint x="105" as="sourcePoint" />
            <mxPoint x="104.5" y="-940" as="targetPoint" />
          </mxGeometry>
        </mxCell>
        <mxCell id="OzVhn0ZwfNGyfeAr3oJH-5" value="" style="endArrow=none;dashed=1;html=1;dashPattern=1 3;strokeWidth=2;rounded=0;entryX=0.5;entryY=0.5;entryDx=0;entryDy=0;entryPerimeter=0;" parent="1" source="_81WXzLPnRWysSRCdrtG-2" edge="1">
          <mxGeometry width="50" height="50" relative="1" as="geometry">
            <mxPoint x="414" y="30" as="sourcePoint" />
            <mxPoint x="414" y="-950" as="targetPoint" />
          </mxGeometry>
        </mxCell>
        <mxCell id="_81WXzLPnRWysSRCdrtG-1" value="Login" style="text;html=1;align=center;verticalAlign=middle;whiteSpace=wrap;rounded=0;" parent="1" vertex="1">
          <mxGeometry x="384" y="-1110" width="60" height="30" as="geometry" />
        </mxCell>
        <mxCell id="_81WXzLPnRWysSRCdrtG-3" value="Inclui &quot;dss_verificar_dados&quot;" style="html=1;verticalAlign=bottom;endArrow=block;curved=0;rounded=0;entryX=0;entryY=0;entryDx=0;entryDy=5;" parent="1" target="_81WXzLPnRWysSRCdrtG-2" edge="1">
          <mxGeometry relative="1" as="geometry">
            <mxPoint x="100" y="-895" as="sourcePoint" />
          </mxGeometry>
        </mxCell>
        <mxCell id="_81WXzLPnRWysSRCdrtG-4" value="Permissão de acesso" style="html=1;verticalAlign=bottom;endArrow=open;dashed=1;endSize=8;curved=0;rounded=0;exitX=0;exitY=1;exitDx=0;exitDy=-5;" parent="1" source="_81WXzLPnRWysSRCdrtG-2" edge="1">
          <mxGeometry relative="1" as="geometry">
            <mxPoint x="100" y="-825" as="targetPoint" />
          </mxGeometry>
        </mxCell>
        <mxCell id="_81WXzLPnRWysSRCdrtG-5" value="" style="endArrow=none;dashed=1;html=1;dashPattern=1 3;strokeWidth=2;rounded=0;entryX=0.5;entryY=0.5;entryDx=0;entryDy=0;entryPerimeter=0;" parent="1" target="_81WXzLPnRWysSRCdrtG-2" edge="1">
          <mxGeometry width="50" height="50" relative="1" as="geometry">
            <mxPoint x="414" y="30" as="sourcePoint" />
            <mxPoint x="414" y="-950" as="targetPoint" />
          </mxGeometry>
        </mxCell>
        <mxCell id="_81WXzLPnRWysSRCdrtG-2" value="" style="html=1;points=[[0,0,0,0,5],[0,1,0,0,-5],[1,0,0,0,5],[1,1,0,0,-5]];perimeter=orthogonalPerimeter;outlineConnect=0;targetShapes=umlLifeline;portConstraint=eastwest;newEdgeStyle={&quot;curved&quot;:0,&quot;rounded&quot;:0};" parent="1" vertex="1">
          <mxGeometry x="409" y="-900" width="10" height="80" as="geometry" />
        </mxCell>
      </root>
    </mxGraphModel>
  </diagram>
</mxfile>
